PathFileType	4	(X/Y/Z)	./resultDataOpenSim/trcMotMarkerGrf/sub10/qtm-14-07.trc
DataRate	CameraRate	NumFrames	NumMarkers	Units	OrigDataRate	OrigDataStartFrame	OrigNumFrames
250.000000	250.000000	5	24	m	250.000000	256	511
Frame#	Time	L.Toe.Tip			R.Toe.Tip			L.Ankle.Lat			R.Ankle.Lat			L.Ankle.Med			R.Ankle.Med			L.Heel			R.Heel			L.Knee.Lat			R.Knee.Lat			L.Knee.Med			R.Knee.Med			L.Thigh.Upper			R.Thigh.Upper			L.ASIS			R.ASIS			V.Sacral			L.Acromium			R.Acromium			C7			L.Elbow			R.Elbow			L.Wrist.Lat			R.Wrist.Lat
		X1	Y1	Z1	X2	Y2	Z2	X3	Y3	Z3	X4	Y4	Z4	X5	Y5	Z5	X6	Y6	Z6	X7	Y7	Z7	X8	Y8	Z8	X9	Y9	Z9	X10	Y10	Z10	X11	Y11	Z11	X12	Y12	Z12	X13	Y13	Z13	X14	Y14	Z14	X15	Y15	Z15	X16	Y16	Z16	X17	Y17	Z17	X18	Y18	Z18	X19	Y19	Z19	X20	Y20	Z20	X21	Y21	Z21	X22	Y22	Z22	X23	Y23	Z23	X24	Y24	Z24

256	1.02	-0.017860775	-0.033475274	-0.11885599	0.4798418	0.099517786	0.065867274	-0.13840399	0.014696587	-0.14969351	0.33670457	0.10672922	0.075088226	-0.11822546	0.034288969	-0.064147303	0.37176651	0.13215896	-0.0051697201	-0.21256905	0.0077146204	-0.10791632	0.29890694	0.074932183	0.020182703	0.1016866	0.31139098	-0.17869404	0.36279085	0.49808459	0.08751053	0.10643727	0.29301314	-0.057435025	0.38115373	0.51341422	-0.04007486	0.045341264	0.69731069	-0.2527371	0.052651536	0.73138641	0.13446888	0.097650719	0.80175022	-0.19380792	0.11072059	0.81334026	0.055667308	-0.094210131	0.83122794	-0.05216907	0.11499857	1.2784935	-0.23259318	0.049615711	1.291947	0.074468239	0.0039695537	1.3108243	-0.098699856	0.070862989	0.97480139	-0.40509609	-0.10285143	1.014638	0.22329268	0.27496152	0.90744343	-0.53464128	-0.057246749	0.96500081	0.46142022
257	1.024	-0.017865694	-0.033462758	-0.11887828	0.49832717	0.099414156	0.063190809	-0.13821303	0.015179569	-0.14958641	0.35503418	0.10417305	0.074297809	-0.1179105	0.034702757	-0.064085051	0.38872844	0.13085486	-0.006048812	-0.21234129	0.0084917028	-0.10770618	0.31727551	0.072099334	0.019558918	0.10251377	0.31146109	-0.17911685	0.36841121	0.49700955	0.087165081	0.10765679	0.29286911	-0.058170117	0.38635417	0.51265984	-0.040170166	0.048757698	0.69818514	-0.25243939	0.059158739	0.73333078	0.13497325	0.10226197	0.80271428	-0.19421468	0.11751843	0.81465459	0.055882514	-0.08804063	0.83261746	-0.051191096	0.12100869	1.2799658	-0.23225742	0.05588141	1.2932261	0.074580242	0.010119787	1.3121363	-0.098355851	0.078134513	0.97668519	-0.40567831	-0.098800876	1.0170456	0.22289251	0.28380993	0.91210734	-0.53444543	-0.056614987	0.96796709	0.4617632
258	1.028	-0.017871518	-0.033437813	-0.11889783	0.51643878	0.099376455	0.060404601	-0.13802129	0.015650205	-0.14948727	0.37302419	0.10187143	0.073536506	-0.11775871	0.035061993	-0.064014465	0.40535627	0.12969414	-0.0069215123	-0.21212428	0.0092597722	-0.1075041	0.33527378	0.069555678	0.018989626	0.10320991	0.31161954	-0.1795137	0.37381497	0.49562078	0.086963466	0.10876406	0.29269327	-0.058808103	0.39157326	0.51164429	-0.040238797	0.052086029	0.6990119	-0.25206888	0.065626311	0.73528132	0.1354014	0.10697654	0.8037417	-0.19456265	0.12441686	0.81610667	0.05602112	-0.081782004	0.83396952	-0.050425476	0.1269675	1.2815164	-0.23189641	0.062073321	1.2945801	0.074687774	0.016269419	1.313522	-0.097992557	0.085304111	0.97863262	-0.40626319	-0.094714661	1.0194512	0.22244106	0.29260529	0.9167825	-0.53412527	-0.055928022	0.9709348	0.46200062
259	1.032	-0.017885285	-0.03339475	-0.11890019	0.53414841	0.099426753	0.057499774	-0.13782125	0.016126161	-0.14939954	0.39071549	0.099791274	0.072759512	-0.11773903	0.035390483	-0.063936803	0.42160338	0.12866486	-0.0077734084	-0.21190969	0.010018449	-0.10731382	0.3528525	0.067277498	0.018505136	0.10377159	0.31185343	-0.17988628	0.37905413	0.49395197	0.086846498	0.10961815	0.29254145	-0.059275119	0.39679203	0.51038652	-0.0402859	0.055392493	0.69978632	-0.25166799	0.072077432	0.73723296	0.13575073	0.1117938	0.80483816	-0.19486659	0.13140567	0.81769148	0.056072969	-0.075506127	0.83533036	-0.049761493	0.13289247	1.2831383	-0.231516	0.068212381	1.2960075	0.074824881	0.02240004	1.314988	-0.097619025	0.092411925	0.98063119	-0.40683399	-0.090596573	1.0218662	0.22194253	0.30136617	0.92145568	-0.53368491	-0.055140814	0.97388605	0.46212367
260	1.036	-0.017910787	-0.033341044	-0.11887777	0.55142753	0.099584583	0.054471531	-0.13760614	0.016619189	-0.14931873	0.40814105	0.097889902	0.071914004	-0.11771889	0.035734768	-0.063859137	0.43743167	0.1277723	-0.0086014139	-0.21169438	0.010758417	-0.10715436	0.36999485	0.065230183	0.018093919	0.10419105	0.31215532	-0.18022542	0.38420011	0.49207012	0.086725214	0.110242	0.29248348	-0.059639197	0.4019888	0.50890441	-0.040316546	0.05872575	0.70051375	-0.25125368	0.078538926	0.73919144	0.13601893	0.11670968	0.8060058	-0.19514476	0.13848032	0.81940426	0.056030253	-0.069194269	0.83672202	-0.049146831	0.13880427	1.2848336	-0.23111552	0.074340946	1.297517	0.075014946	0.028490861	1.3165515	-0.097238409	0.099489747	0.9826741	-0.40733595	-0.086467186	1.0243009	0.22140674	0.31005958	0.92610495	-0.53312933	-0.054216713	0.97680275	0.46212993
